<mxfile host="app.diagrams.net" modified="2023-04-04T13:49:37.745Z" agent="Mozilla/5.0 (Macintosh; Intel Mac OS X 10_15_7) AppleWebKit/537.36 (KHTML, like Gecko) Chrome/111.0.0.0 Safari/537.36" etag="OoM-Y-pvIdn3nnKVr6Ix" version="21.1.4" type="github">
  <diagram name="Page-1" id="4QvdlcGBtABUPp3O1O5-">
    <mxGraphModel dx="1194" dy="616" grid="1" gridSize="10" guides="1" tooltips="1" connect="1" arrows="1" fold="1" page="1" pageScale="1" pageWidth="827" pageHeight="1169" math="0" shadow="0">
      <root>
        <mxCell id="0" />
        <mxCell id="1" parent="0" />
        <mxCell id="5teVOgjoWZq53SViE1vw-3" value="&amp;lt;&amp;lt;BakeryProduct&amp;gt;&amp;gt;" style="swimlane;fontStyle=0;childLayout=stackLayout;horizontal=1;startSize=30;horizontalStack=0;resizeParent=1;resizeParentMax=0;resizeLast=0;collapsible=1;marginBottom=0;whiteSpace=wrap;html=1;" parent="1" vertex="1">
          <mxGeometry x="270" y="50" width="190" height="120" as="geometry" />
        </mxCell>
        <mxCell id="5teVOgjoWZq53SViE1vw-4" value="name: String" style="text;strokeColor=none;fillColor=none;align=left;verticalAlign=middle;spacingLeft=4;spacingRight=4;overflow=hidden;points=[[0,0.5],[1,0.5]];portConstraint=eastwest;rotatable=0;whiteSpace=wrap;html=1;" parent="5teVOgjoWZq53SViE1vw-3" vertex="1">
          <mxGeometry y="30" width="190" height="30" as="geometry" />
        </mxCell>
        <mxCell id="5teVOgjoWZq53SViE1vw-16" value="price: double" style="text;strokeColor=none;fillColor=none;align=left;verticalAlign=middle;spacingLeft=4;spacingRight=4;overflow=hidden;points=[[0,0.5],[1,0.5]];portConstraint=eastwest;rotatable=0;whiteSpace=wrap;html=1;" parent="5teVOgjoWZq53SViE1vw-3" vertex="1">
          <mxGeometry y="60" width="190" height="30" as="geometry" />
        </mxCell>
        <mxCell id="5teVOgjoWZq53SViE1vw-46" value="" style="endArrow=none;html=1;rounded=0;" parent="5teVOgjoWZq53SViE1vw-3" edge="1">
          <mxGeometry width="50" height="50" relative="1" as="geometry">
            <mxPoint y="119" as="sourcePoint" />
            <mxPoint x="190" y="119" as="targetPoint" />
          </mxGeometry>
        </mxCell>
        <mxCell id="5teVOgjoWZq53SViE1vw-5" value="+ bake" style="text;strokeColor=none;fillColor=none;align=left;verticalAlign=middle;spacingLeft=4;spacingRight=4;overflow=hidden;points=[[0,0.5],[1,0.5]];portConstraint=eastwest;rotatable=0;whiteSpace=wrap;html=1;" parent="5teVOgjoWZq53SViE1vw-3" vertex="1">
          <mxGeometry y="90" width="190" height="30" as="geometry" />
        </mxCell>
        <mxCell id="5teVOgjoWZq53SViE1vw-7" value="" style="endArrow=classic;html=1;rounded=0;exitX=0.671;exitY=-0.013;exitDx=0;exitDy=0;exitPerimeter=0;entryX=0.295;entryY=1.1;entryDx=0;entryDy=0;entryPerimeter=0;" parent="1" edge="1" target="5teVOgjoWZq53SViE1vw-5" source="5teVOgjoWZq53SViE1vw-8">
          <mxGeometry width="50" height="50" relative="1" as="geometry">
            <mxPoint x="299.5" y="320" as="sourcePoint" />
            <mxPoint x="357.7222222222222" y="200" as="targetPoint" />
          </mxGeometry>
        </mxCell>
        <mxCell id="5teVOgjoWZq53SViE1vw-8" value="Cake" style="swimlane;fontStyle=0;childLayout=stackLayout;horizontal=1;startSize=30;horizontalStack=0;resizeParent=1;resizeParentMax=0;resizeLast=0;collapsible=1;marginBottom=0;whiteSpace=wrap;html=1;" parent="1" vertex="1">
          <mxGeometry x="90" y="220" width="170" height="180" as="geometry" />
        </mxCell>
        <mxCell id="5teVOgjoWZq53SViE1vw-10" value="numberOfLayers: int" style="text;strokeColor=none;fillColor=none;align=left;verticalAlign=middle;spacingLeft=4;spacingRight=4;overflow=hidden;points=[[0,0.5],[1,0.5]];portConstraint=eastwest;rotatable=0;whiteSpace=wrap;html=1;" parent="5teVOgjoWZq53SViE1vw-8" vertex="1">
          <mxGeometry y="30" width="170" height="30" as="geometry" />
        </mxCell>
        <mxCell id="5teVOgjoWZq53SViE1vw-48" value="numberOfEggs: int" style="text;strokeColor=none;fillColor=none;align=left;verticalAlign=middle;spacingLeft=4;spacingRight=4;overflow=hidden;points=[[0,0.5],[1,0.5]];portConstraint=eastwest;rotatable=0;whiteSpace=wrap;html=1;" parent="5teVOgjoWZq53SViE1vw-8" vertex="1">
          <mxGeometry y="60" width="170" height="30" as="geometry" />
        </mxCell>
        <mxCell id="5teVOgjoWZq53SViE1vw-50" value="baseFlavour: String" style="text;strokeColor=none;fillColor=none;align=left;verticalAlign=middle;spacingLeft=4;spacingRight=4;overflow=hidden;points=[[0,0.5],[1,0.5]];portConstraint=eastwest;rotatable=0;whiteSpace=wrap;html=1;" parent="5teVOgjoWZq53SViE1vw-8" vertex="1">
          <mxGeometry y="90" width="170" height="30" as="geometry" />
        </mxCell>
        <mxCell id="5teVOgjoWZq53SViE1vw-11" value="shape: String" style="text;strokeColor=none;fillColor=none;align=left;verticalAlign=middle;spacingLeft=4;spacingRight=4;overflow=hidden;points=[[0,0.5],[1,0.5]];portConstraint=eastwest;rotatable=0;whiteSpace=wrap;html=1;" parent="5teVOgjoWZq53SViE1vw-8" vertex="1">
          <mxGeometry y="120" width="170" height="30" as="geometry" />
        </mxCell>
        <mxCell id="gk2fHgnyvC54FhEPz09_-3" value="" style="endArrow=none;html=1;rounded=0;" edge="1" parent="5teVOgjoWZq53SViE1vw-8">
          <mxGeometry width="50" height="50" relative="1" as="geometry">
            <mxPoint y="149" as="sourcePoint" />
            <mxPoint x="170" y="149" as="targetPoint" />
          </mxGeometry>
        </mxCell>
        <mxCell id="gk2fHgnyvC54FhEPz09_-2" value="+ combineLayers()" style="text;strokeColor=none;fillColor=none;align=left;verticalAlign=middle;spacingLeft=4;spacingRight=4;overflow=hidden;points=[[0,0.5],[1,0.5]];portConstraint=eastwest;rotatable=0;whiteSpace=wrap;html=1;" vertex="1" parent="5teVOgjoWZq53SViE1vw-8">
          <mxGeometry y="150" width="170" height="30" as="geometry" />
        </mxCell>
        <mxCell id="5teVOgjoWZq53SViE1vw-12" value="Pastery" style="swimlane;fontStyle=0;childLayout=stackLayout;horizontal=1;startSize=30;horizontalStack=0;resizeParent=1;resizeParentMax=0;resizeLast=0;collapsible=1;marginBottom=0;whiteSpace=wrap;html=1;" parent="1" vertex="1">
          <mxGeometry x="400" y="300" width="170" height="90" as="geometry" />
        </mxCell>
        <mxCell id="5teVOgjoWZq53SViE1vw-14" value="water: int" style="text;strokeColor=none;fillColor=none;align=left;verticalAlign=middle;spacingLeft=4;spacingRight=4;overflow=hidden;points=[[0,0.5],[1,0.5]];portConstraint=eastwest;rotatable=0;whiteSpace=wrap;html=1;" parent="5teVOgjoWZq53SViE1vw-12" vertex="1">
          <mxGeometry y="30" width="170" height="30" as="geometry" />
        </mxCell>
        <mxCell id="5teVOgjoWZq53SViE1vw-15" value="filoPasteryNeeded: boolean" style="text;strokeColor=none;fillColor=none;align=left;verticalAlign=middle;spacingLeft=4;spacingRight=4;overflow=hidden;points=[[0,0.5],[1,0.5]];portConstraint=eastwest;rotatable=0;whiteSpace=wrap;html=1;" parent="5teVOgjoWZq53SViE1vw-12" vertex="1">
          <mxGeometry y="60" width="170" height="30" as="geometry" />
        </mxCell>
        <mxCell id="5teVOgjoWZq53SViE1vw-18" value="Cafe" style="swimlane;fontStyle=0;childLayout=stackLayout;horizontal=1;startSize=30;horizontalStack=0;resizeParent=1;resizeParentMax=0;resizeLast=0;collapsible=1;marginBottom=0;whiteSpace=wrap;html=1;" parent="1" vertex="1">
          <mxGeometry x="560" y="80" width="240" height="180" as="geometry" />
        </mxCell>
        <mxCell id="5teVOgjoWZq53SViE1vw-19" value="name: String" style="text;strokeColor=none;fillColor=none;align=left;verticalAlign=middle;spacingLeft=4;spacingRight=4;overflow=hidden;points=[[0,0.5],[1,0.5]];portConstraint=eastwest;rotatable=0;whiteSpace=wrap;html=1;" parent="5teVOgjoWZq53SViE1vw-18" vertex="1">
          <mxGeometry y="30" width="240" height="30" as="geometry" />
        </mxCell>
        <mxCell id="5teVOgjoWZq53SViE1vw-20" value="till: double" style="text;strokeColor=none;fillColor=none;align=left;verticalAlign=middle;spacingLeft=4;spacingRight=4;overflow=hidden;points=[[0,0.5],[1,0.5]];portConstraint=eastwest;rotatable=0;whiteSpace=wrap;html=1;" parent="5teVOgjoWZq53SViE1vw-18" vertex="1">
          <mxGeometry y="60" width="240" height="30" as="geometry" />
        </mxCell>
        <mxCell id="5teVOgjoWZq53SViE1vw-21" value="stock: ArrayList &amp;lt;bakeryProduct&amp;gt; bakedGoods" style="text;strokeColor=none;fillColor=none;align=left;verticalAlign=middle;spacingLeft=4;spacingRight=4;overflow=hidden;points=[[0,0.5],[1,0.5]];portConstraint=eastwest;rotatable=0;whiteSpace=wrap;html=1;" parent="5teVOgjoWZq53SViE1vw-18" vertex="1">
          <mxGeometry y="90" width="240" height="30" as="geometry" />
        </mxCell>
        <mxCell id="5teVOgjoWZq53SViE1vw-17" value="" style="endArrow=none;html=1;rounded=0;" parent="5teVOgjoWZq53SViE1vw-18" edge="1">
          <mxGeometry width="50" height="50" relative="1" as="geometry">
            <mxPoint y="120" as="sourcePoint" />
            <mxPoint x="240" y="120" as="targetPoint" />
          </mxGeometry>
        </mxCell>
        <mxCell id="5teVOgjoWZq53SViE1vw-49" value="+ addToCollection(newBake)" style="text;strokeColor=none;fillColor=none;align=left;verticalAlign=middle;spacingLeft=4;spacingRight=4;overflow=hidden;points=[[0,0.5],[1,0.5]];portConstraint=eastwest;rotatable=0;whiteSpace=wrap;html=1;" parent="5teVOgjoWZq53SViE1vw-18" vertex="1">
          <mxGeometry y="120" width="240" height="30" as="geometry" />
        </mxCell>
        <mxCell id="5teVOgjoWZq53SViE1vw-6" value="+ sellProduct" style="text;strokeColor=none;fillColor=none;align=left;verticalAlign=middle;spacingLeft=4;spacingRight=4;overflow=hidden;points=[[0,0.5],[1,0.5]];portConstraint=eastwest;rotatable=0;whiteSpace=wrap;html=1;" parent="5teVOgjoWZq53SViE1vw-18" vertex="1">
          <mxGeometry y="150" width="240" height="30" as="geometry" />
        </mxCell>
        <mxCell id="5teVOgjoWZq53SViE1vw-24" value="" style="endArrow=classic;html=1;rounded=0;entryX=0.847;entryY=1.1;entryDx=0;entryDy=0;entryPerimeter=0;" parent="1" target="gk2fHgnyvC54FhEPz09_-2" edge="1">
          <mxGeometry width="50" height="50" relative="1" as="geometry">
            <mxPoint x="300" y="530" as="sourcePoint" />
            <mxPoint x="270" y="440" as="targetPoint" />
          </mxGeometry>
        </mxCell>
        <mxCell id="5teVOgjoWZq53SViE1vw-26" value="ChocolateCake" style="swimlane;fontStyle=0;childLayout=stackLayout;horizontal=1;startSize=30;horizontalStack=0;resizeParent=1;resizeParentMax=0;resizeLast=0;collapsible=1;marginBottom=0;whiteSpace=wrap;html=1;" parent="1" vertex="1">
          <mxGeometry x="50" y="500" width="140" height="120" as="geometry" />
        </mxCell>
        <mxCell id="5teVOgjoWZq53SViE1vw-53" value="" style="endArrow=none;html=1;rounded=0;entryX=0.993;entryY=0;entryDx=0;entryDy=0;entryPerimeter=0;" parent="5teVOgjoWZq53SViE1vw-26" target="5teVOgjoWZq53SViE1vw-51" edge="1">
          <mxGeometry width="50" height="50" relative="1" as="geometry">
            <mxPoint y="60" as="sourcePoint" />
            <mxPoint x="50" y="10" as="targetPoint" />
          </mxGeometry>
        </mxCell>
        <mxCell id="5teVOgjoWZq53SViE1vw-27" value="cocoaPowder: int" style="text;strokeColor=none;fillColor=none;align=left;verticalAlign=middle;spacingLeft=4;spacingRight=4;overflow=hidden;points=[[0,0.5],[1,0.5]];portConstraint=eastwest;rotatable=0;whiteSpace=wrap;html=1;" parent="5teVOgjoWZq53SViE1vw-26" vertex="1">
          <mxGeometry y="30" width="140" height="30" as="geometry" />
        </mxCell>
        <mxCell id="5teVOgjoWZq53SViE1vw-51" value="+ addChocolateChips" style="text;strokeColor=none;fillColor=none;align=left;verticalAlign=middle;spacingLeft=4;spacingRight=4;overflow=hidden;points=[[0,0.5],[1,0.5]];portConstraint=eastwest;rotatable=0;whiteSpace=wrap;html=1;" parent="5teVOgjoWZq53SViE1vw-26" vertex="1">
          <mxGeometry y="60" width="140" height="30" as="geometry" />
        </mxCell>
        <mxCell id="gk2fHgnyvC54FhEPz09_-4" value="+ combineLayers()" style="text;strokeColor=none;fillColor=none;align=left;verticalAlign=middle;spacingLeft=4;spacingRight=4;overflow=hidden;points=[[0,0.5],[1,0.5]];portConstraint=eastwest;rotatable=0;whiteSpace=wrap;html=1;" vertex="1" parent="5teVOgjoWZq53SViE1vw-26">
          <mxGeometry y="90" width="140" height="30" as="geometry" />
        </mxCell>
        <mxCell id="5teVOgjoWZq53SViE1vw-30" value="VictoriaSponge" style="swimlane;fontStyle=0;childLayout=stackLayout;horizontal=1;startSize=30;horizontalStack=0;resizeParent=1;resizeParentMax=0;resizeLast=0;collapsible=1;marginBottom=0;whiteSpace=wrap;html=1;" parent="1" vertex="1">
          <mxGeometry x="230" y="530" width="140" height="90" as="geometry" />
        </mxCell>
        <mxCell id="5teVOgjoWZq53SViE1vw-31" value="typeOfJam: String" style="text;strokeColor=none;fillColor=none;align=left;verticalAlign=middle;spacingLeft=4;spacingRight=4;overflow=hidden;points=[[0,0.5],[1,0.5]];portConstraint=eastwest;rotatable=0;whiteSpace=wrap;html=1;" parent="5teVOgjoWZq53SViE1vw-30" vertex="1">
          <mxGeometry y="30" width="140" height="30" as="geometry" />
        </mxCell>
        <mxCell id="gk2fHgnyvC54FhEPz09_-6" value="" style="endArrow=none;html=1;rounded=0;" edge="1" parent="5teVOgjoWZq53SViE1vw-30">
          <mxGeometry width="50" height="50" relative="1" as="geometry">
            <mxPoint y="60" as="sourcePoint" />
            <mxPoint x="140" y="60" as="targetPoint" />
          </mxGeometry>
        </mxCell>
        <mxCell id="gk2fHgnyvC54FhEPz09_-5" value="+ combineLayers()" style="text;strokeColor=none;fillColor=none;align=left;verticalAlign=middle;spacingLeft=4;spacingRight=4;overflow=hidden;points=[[0,0.5],[1,0.5]];portConstraint=eastwest;rotatable=0;whiteSpace=wrap;html=1;" vertex="1" parent="5teVOgjoWZq53SViE1vw-30">
          <mxGeometry y="60" width="140" height="30" as="geometry" />
        </mxCell>
        <mxCell id="5teVOgjoWZq53SViE1vw-34" value="" style="endArrow=classic;html=1;rounded=0;exitX=0;exitY=0.25;exitDx=0;exitDy=0;entryX=0.6;entryY=1.033;entryDx=0;entryDy=0;entryPerimeter=0;" parent="1" edge="1" target="5teVOgjoWZq53SViE1vw-15" source="5teVOgjoWZq53SViE1vw-41">
          <mxGeometry width="50" height="50" relative="1" as="geometry">
            <mxPoint x="560" y="490" as="sourcePoint" />
            <mxPoint x="460" y="410" as="targetPoint" />
          </mxGeometry>
        </mxCell>
        <mxCell id="5teVOgjoWZq53SViE1vw-39" value="" style="endArrow=classic;html=1;rounded=0;entryX=0.335;entryY=1.067;entryDx=0;entryDy=0;entryPerimeter=0;" parent="1" target="gk2fHgnyvC54FhEPz09_-2" edge="1">
          <mxGeometry width="50" height="50" relative="1" as="geometry">
            <mxPoint x="120" y="500" as="sourcePoint" />
            <mxPoint x="170" y="450" as="targetPoint" />
          </mxGeometry>
        </mxCell>
        <mxCell id="5teVOgjoWZq53SViE1vw-40" value="" style="endArrow=classic;html=1;rounded=0;exitX=0.347;exitY=-0.044;exitDx=0;exitDy=0;exitPerimeter=0;entryX=0.632;entryY=1.067;entryDx=0;entryDy=0;entryPerimeter=0;" parent="1" edge="1" target="5teVOgjoWZq53SViE1vw-5" source="5teVOgjoWZq53SViE1vw-12">
          <mxGeometry width="50" height="50" relative="1" as="geometry">
            <mxPoint x="435.75" y="320" as="sourcePoint" />
            <mxPoint x="372.8611111111111" y="200" as="targetPoint" />
          </mxGeometry>
        </mxCell>
        <mxCell id="5teVOgjoWZq53SViE1vw-41" value="Baklava" style="swimlane;fontStyle=0;childLayout=stackLayout;horizontal=1;startSize=30;horizontalStack=0;resizeParent=1;resizeParentMax=0;resizeLast=0;collapsible=1;marginBottom=0;whiteSpace=wrap;html=1;" parent="1" vertex="1">
          <mxGeometry x="550" y="490" width="190" height="60" as="geometry" />
        </mxCell>
        <mxCell id="5teVOgjoWZq53SViE1vw-42" value="amountOfSyrup: int&amp;nbsp;" style="text;strokeColor=none;fillColor=none;align=left;verticalAlign=middle;spacingLeft=4;spacingRight=4;overflow=hidden;points=[[0,0.5],[1,0.5]];portConstraint=eastwest;rotatable=0;whiteSpace=wrap;html=1;" parent="5teVOgjoWZq53SViE1vw-41" vertex="1">
          <mxGeometry y="30" width="190" height="30" as="geometry" />
        </mxCell>
        <mxCell id="5teVOgjoWZq53SViE1vw-45" value="" style="endArrow=none;html=1;rounded=0;exitX=1;exitY=0.5;exitDx=0;exitDy=0;entryX=0;entryY=0.5;entryDx=0;entryDy=0;" parent="1" source="5teVOgjoWZq53SViE1vw-16" target="5teVOgjoWZq53SViE1vw-20" edge="1">
          <mxGeometry width="50" height="50" relative="1" as="geometry">
            <mxPoint x="510" y="210" as="sourcePoint" />
            <mxPoint x="560" y="160" as="targetPoint" />
          </mxGeometry>
        </mxCell>
      </root>
    </mxGraphModel>
  </diagram>
</mxfile>
